<?xml version="1.0" standalone="no"?>
<!DOCTYPE svg PUBLIC "-//W3C//DTD SVG 20010904//EN"
 "http://www.w3.org/TR/2001/REC-SVG-20010904/DTD/svg10.dtd">
<svg version="1.0" xmlns="http://www.w3.org/2000/svg"
 width="128.000000pt" height="128.000000pt" viewBox="0 0 128.000000 128.000000"
 preserveAspectRatio="xMidYMid meet">

<g transform="translate(0.000000,128.000000) scale(0.100000,-0.100000)"
fill="#000000" stroke="none">
<path d="M331 735 c34 -58 62 -105 64 -105 2 0 20 9 39 21 l36 21 -20 39 -20
39 206 0 c113 0 204 -4 202 -8 -1 -5 -48 -85 -103 -180 l-99 -172 -20 33 c-11
17 -21 34 -23 37 -6 7 -73 -32 -73 -43 0 -9 75 -144 105 -190 11 -15 34 21
172 260 89 153 171 295 183 316 l22 37 -365 0 -366 0 60 -105z"/>
<path d="M550 690 c0 -16 7 -20 30 -20 l30 0 0 -90 c0 -89 0 -90 25 -90 25 0
25 1 25 90 l0 90 30 0 c23 0 30 4 30 20 0 18 -7 20 -85 20 -78 0 -85 -2 -85
-20z"/>
</g>
</svg>
